# Blender v2.83.5 OBJ File: 'placa_antigo.blend'
# www.blender.org
mtllib placa_antigo.mtl
o Plane
v 0.076183 0.054810 0.000000
v 0.090321 0.054810 0.000000
v 0.076183 0.058236 0.000000
v 0.090321 0.058236 0.000000
v 0.200000 -0.000206 0.000000
v 0.197903 0.062440 0.000000
v 0.194462 0.064906 0.000000
v 0.200000 0.058648 0.000000
v 0.190034 0.056886 0.000000
v 0.186728 0.065000 0.000000
v 0.186728 0.058648 0.000000
v 0.200000 0.054934 0.000000
v 0.191666 0.054582 0.000000
v 0.186728 0.054934 0.000000
v 0.200000 0.050163 0.000000
v 0.192598 0.050163 0.000000
v 0.186728 0.050163 0.000000
v 0.200000 0.050163 0.003000
v 0.194462 0.064906 0.003000
v 0.197903 0.062440 0.003000
v 0.186728 0.065000 0.003000
v 0.190034 0.056886 0.003000
v 0.200000 0.058648 0.003000
v 0.191666 0.054582 0.003000
v 0.186728 0.058648 0.003000
v 0.200000 0.054934 0.003000
v 0.192598 0.050163 0.003000
v 0.091988 0.065000 0.000000
v 0.091988 0.058648 0.000000
v 0.091988 0.053588 0.000000
v 0.091988 0.050163 0.000000
v 0.091988 0.065000 0.003000
v 0.091988 0.058648 0.003000
v 0.074770 0.065000 0.000000
v 0.074770 0.058648 0.000000
v 0.074770 0.053343 0.000000
v 0.074770 0.050163 0.000000
v 0.074770 0.065000 0.003000
v 0.074770 0.058648 0.003000
v -0.076183 0.054810 -0.000000
v -0.090321 0.054810 -0.000000
v -0.076183 0.058236 -0.000000
v -0.090321 0.058236 -0.000000
v -0.200000 -0.000206 -0.000000
v -0.197903 0.062440 -0.000000
v 0.000000 0.065000 -0.000000
v -0.194462 0.064906 -0.000000
v -0.200000 0.058648 -0.000000
v 0.000000 0.058648 -0.000000
v -0.190034 0.056886 -0.000000
v -0.186728 0.065000 -0.000000
v -0.186728 0.058648 -0.000000
v -0.200000 0.054934 -0.000000
v 0.000000 0.052281 -0.000000
v -0.191666 0.054582 -0.000000
v -0.186728 0.054934 -0.000000
v -0.200000 0.050163 -0.000000
v 0.000000 0.050163 -0.000000
v -0.192598 0.050163 -0.000000
v -0.186728 0.050163 -0.000000
v -0.200000 0.050163 0.003000
v 0.000000 0.058648 0.003000
v 0.000000 0.065000 0.003000
v -0.194462 0.064906 0.003000
v -0.197903 0.062440 0.003000
v -0.186728 0.065000 0.003000
v -0.190034 0.056886 0.003000
v -0.200000 0.058648 0.003000
v -0.191666 0.054582 0.003000
v -0.186728 0.058648 0.003000
v -0.200000 0.054934 0.003000
v -0.192598 0.050163 0.003000
v -0.091988 0.065000 -0.000000
v -0.091988 0.058648 -0.000000
v -0.091988 0.053588 -0.000000
v -0.091988 0.050163 -0.000000
v -0.091988 0.065000 0.003000
v -0.091988 0.058648 0.003000
v -0.074770 0.065000 -0.000000
v -0.074770 0.058648 -0.000000
v -0.074770 0.053343 -0.000000
v -0.074770 0.050163 -0.000000
v -0.074770 0.065000 0.003000
v -0.074770 0.058648 0.003000
v 0.076183 -0.054810 0.000000
v 0.090321 -0.054810 0.000000
v 0.076183 -0.058236 0.000000
v 0.090321 -0.058236 0.000000
v 0.200000 0.000206 0.000000
v 0.197903 -0.062440 0.000000
v 0.192598 -0.000000 0.000000
v 0.194462 -0.064906 0.000000
v 0.200000 -0.058648 0.000000
v 0.190034 -0.056886 0.000000
v 0.186728 -0.000000 0.000000
v 0.186728 -0.065000 0.000000
v 0.186728 -0.058648 0.000000
v 0.200000 -0.054934 0.000000
v 0.191666 -0.054582 0.000000
v 0.186728 -0.054934 0.000000
v 0.200000 -0.050163 0.000000
v 0.192598 -0.050163 0.000000
v 0.186728 -0.050163 0.000000
v 0.200000 -0.050163 0.003000
v 0.200000 -0.000000 0.003000
v 0.194462 -0.064906 0.003000
v 0.197903 -0.062440 0.003000
v 0.192598 -0.000000 0.003000
v 0.186728 -0.065000 0.003000
v 0.190034 -0.056886 0.003000
v 0.200000 -0.058648 0.003000
v 0.191666 -0.054582 0.003000
v 0.186728 -0.058648 0.003000
v 0.200000 -0.054934 0.003000
v 0.192598 -0.050163 0.003000
v 0.091988 -0.000000 0.000000
v 0.091988 -0.065000 0.000000
v 0.091988 -0.058648 0.000000
v 0.091988 -0.053588 0.000000
v 0.091988 -0.050163 0.000000
v 0.091988 -0.065000 0.003000
v 0.091988 -0.058648 0.003000
v 0.074770 -0.000000 0.000000
v 0.074770 -0.065000 0.000000
v 0.074770 -0.058648 0.000000
v 0.074770 -0.053343 0.000000
v 0.074770 -0.050163 0.000000
v 0.074770 -0.065000 0.003000
v 0.074770 -0.058648 0.003000
v -0.076183 -0.054810 -0.000000
v -0.090321 -0.054810 -0.000000
v -0.076183 -0.058236 -0.000000
v -0.090321 -0.058236 -0.000000
v -0.200000 0.000206 -0.000000
v 0.000000 -0.000000 -0.000000
v -0.197903 -0.062440 -0.000000
v -0.000000 -0.065000 0.000000
v -0.192598 0.000000 -0.000000
v -0.194462 -0.064906 -0.000000
v -0.200000 -0.058648 -0.000000
v -0.000000 -0.058648 0.000000
v -0.190034 -0.056886 -0.000000
v -0.186728 0.000000 -0.000000
v -0.186728 -0.065000 -0.000000
v -0.186728 -0.058648 -0.000000
v -0.200000 -0.054934 -0.000000
v -0.000000 -0.052281 0.000000
v -0.191666 -0.054582 -0.000000
v -0.186728 -0.054934 -0.000000
v -0.200000 -0.050163 -0.000000
v -0.000000 -0.050163 0.000000
v -0.192598 -0.050163 -0.000000
v -0.186728 -0.050163 -0.000000
v -0.200000 -0.050163 0.003000
v -0.200000 0.000000 0.003000
v -0.000000 -0.058648 0.003000
v -0.000000 -0.065000 0.003000
v -0.194462 -0.064906 0.003000
v -0.197903 -0.062440 0.003000
v -0.192598 0.000000 0.003000
v -0.186728 -0.065000 0.003000
v -0.190034 -0.056886 0.003000
v -0.200000 -0.058648 0.003000
v -0.191666 -0.054582 0.003000
v -0.186728 -0.058648 0.003000
v -0.200000 -0.054934 0.003000
v -0.192598 -0.050163 0.003000
v -0.091988 0.000000 -0.000000
v -0.091988 -0.065000 -0.000000
v -0.091988 -0.058648 -0.000000
v -0.091988 -0.053588 -0.000000
v -0.091988 -0.050163 -0.000000
v -0.091988 -0.065000 0.003000
v -0.091988 -0.058648 0.003000
v -0.074770 0.000000 -0.000000
v -0.074770 -0.065000 -0.000000
v -0.074770 -0.058648 -0.000000
v -0.074770 -0.053343 -0.000000
v -0.074770 -0.050163 -0.000000
v -0.074770 -0.065000 0.003000
v -0.074770 -0.058648 0.003000
v 0.167802 0.020964 -0.000000
v 0.167802 0.040499 -0.000000
v 0.167802 0.020964 0.001674
v 0.167802 0.040499 0.001674
v 0.000000 0.020964 -0.000000
v -0.167802 0.020964 0.000000
v 0.000000 0.040499 0.000000
v -0.167802 0.040499 0.000000
v -0.000000 0.020964 0.001674
v -0.167802 0.020964 0.001674
v -0.000000 0.040499 0.001674
v -0.167802 0.040499 0.001674
v 0.191666 0.054582 0.000000
v 0.190034 0.056886 0.000000
v 0.186728 0.058648 0.000000
v 0.186728 0.058648 0.000000
v 0.091988 0.058648 0.000000
v 0.192598 0.050163 0.000000
v 0.192598 -0.000000 0.000000
v 0.192598 -0.000000 0.000000
v 0.192598 -0.000000 0.000000
v 0.192598 -0.000000 0.000000
v 0.192598 -0.000000 0.000000
v 0.200000 0.050163 0.003000
v 0.200000 -0.000000 0.003000
v 0.200000 -0.000000 0.003000
v 0.200000 -0.000000 0.003000
v 0.200000 -0.000000 0.003000
v 0.200000 -0.000000 0.003000
v 0.200000 -0.000000 0.003000
v 0.194462 0.064906 0.003000
v 0.194462 0.064906 0.003000
v 0.197903 0.062440 0.003000
v 0.192598 -0.000000 0.003000
v 0.192598 -0.000000 0.003000
v 0.192598 -0.000000 0.003000
v 0.192598 -0.000000 0.003000
v 0.186728 0.065000 0.003000
v 0.200000 0.058648 0.003000
v 0.191666 0.054582 0.003000
v 0.190034 0.056886 0.003000
v 0.186728 0.058648 0.003000
v 0.186728 0.058648 0.003000
v 0.091988 0.065000 0.003000
v 0.091988 0.058648 0.003000
v 0.200000 0.054934 0.003000
v 0.192598 0.050163 0.003000
v 0.194462 0.064906 0.000000
v 0.200000 -0.000206 0.000000
v 0.074770 0.058648 0.000000
v 0.074770 0.065000 0.003000
v 0.074770 0.058648 0.003000
v 0.000000 0.058648 -0.000000
v 0.000000 0.065000 0.003000
v 0.000000 0.058648 0.003000
v -0.191666 0.054582 -0.000000
v -0.190034 0.056886 -0.000000
v -0.186728 0.058648 -0.000000
v -0.186728 0.058648 -0.000000
v -0.091988 0.058648 -0.000000
v -0.192598 0.050163 -0.000000
v -0.192598 0.000000 -0.000000
v -0.192598 0.000000 -0.000000
v -0.192598 0.000000 -0.000000
v -0.192598 0.000000 -0.000000
v -0.192598 0.000000 -0.000000
v -0.200000 0.050163 0.003000
v -0.200000 0.000000 0.003000
v -0.200000 0.000000 0.003000
v -0.200000 0.000000 0.003000
v -0.200000 0.000000 0.003000
v -0.200000 0.000000 0.003000
v -0.200000 0.000000 0.003000
v -0.194462 0.064906 0.003000
v -0.194462 0.064906 0.003000
v -0.197903 0.062440 0.003000
v -0.192598 0.000000 0.003000
v -0.192598 0.000000 0.003000
v -0.192598 0.000000 0.003000
v -0.192598 0.000000 0.003000
v -0.186728 0.065000 0.003000
v -0.200000 0.058648 0.003000
v -0.191666 0.054582 0.003000
v -0.190034 0.056886 0.003000
v -0.186728 0.058648 0.003000
v -0.186728 0.058648 0.003000
v -0.091988 0.065000 0.003000
v -0.091988 0.058648 0.003000
v -0.200000 0.054934 0.003000
v -0.192598 0.050163 0.003000
v -0.194462 0.064906 -0.000000
v -0.200000 -0.000206 -0.000000
v -0.074770 0.058648 -0.000000
v -0.074770 0.065000 0.003000
v -0.074770 0.058648 0.003000
v 0.191666 -0.054582 0.000000
v 0.190034 -0.056886 0.000000
v 0.186728 -0.058648 0.000000
v 0.186728 -0.058648 0.000000
v 0.091988 -0.058648 0.000000
v 0.192598 -0.050163 0.000000
v 0.200000 -0.050163 0.003000
v 0.194462 -0.064906 0.003000
v 0.194462 -0.064906 0.003000
v 0.197903 -0.062440 0.003000
v 0.186728 -0.065000 0.003000
v 0.200000 -0.058648 0.003000
v 0.191666 -0.054582 0.003000
v 0.190034 -0.056886 0.003000
v 0.186728 -0.058648 0.003000
v 0.186728 -0.058648 0.003000
v 0.091988 -0.065000 0.003000
v 0.091988 -0.058648 0.003000
v 0.200000 -0.054934 0.003000
v 0.192598 -0.050163 0.003000
v 0.194462 -0.064906 0.000000
v 0.200000 0.000206 0.000000
v 0.074770 -0.058648 0.000000
v 0.074770 -0.065000 0.003000
v 0.074770 -0.058648 0.003000
v -0.000000 -0.058648 0.000000
v -0.000000 -0.065000 0.003000
v -0.000000 -0.058648 0.003000
v -0.191666 -0.054582 -0.000000
v -0.190034 -0.056886 -0.000000
v -0.186728 -0.058648 -0.000000
v -0.186728 -0.058648 -0.000000
v -0.091988 -0.058648 -0.000000
v -0.192598 -0.050163 -0.000000
v -0.200000 -0.050163 0.003000
v -0.194462 -0.064906 0.003000
v -0.194462 -0.064906 0.003000
v -0.197903 -0.062440 0.003000
v -0.186728 -0.065000 0.003000
v -0.200000 -0.058648 0.003000
v -0.191666 -0.054582 0.003000
v -0.190034 -0.056886 0.003000
v -0.186728 -0.058648 0.003000
v -0.186728 -0.058648 0.003000
v -0.091988 -0.065000 0.003000
v -0.091988 -0.058648 0.003000
v -0.200000 -0.054934 0.003000
v -0.192598 -0.050163 0.003000
v -0.194462 -0.064906 -0.000000
v -0.200000 0.000206 -0.000000
v -0.074770 -0.058648 -0.000000
v -0.074770 -0.065000 0.003000
v -0.074770 -0.058648 0.003000
v 0.000000 0.020964 -0.000000
v 0.167802 0.020964 -0.000000
v 0.167802 0.020964 -0.000000
v 0.167802 0.040499 -0.000000
v 0.167802 0.040499 -0.000000
v 0.000000 0.040499 0.000000
v -0.000000 0.020964 0.001674
v 0.167802 0.020964 0.001674
v 0.167802 0.020964 0.001674
v 0.167802 0.040499 0.001674
v 0.167802 0.040499 0.001674
v -0.000000 0.040499 0.001674
v -0.167802 0.020964 0.000000
v -0.167802 0.020964 0.000000
v -0.167802 0.040499 0.000000
v -0.167802 0.040499 0.000000
v -0.167802 0.020964 0.001674
v -0.167802 0.020964 0.001674
v -0.167802 0.040499 0.001674
v -0.167802 0.040499 0.001674
vt 0.000000 1.000000
vt 1.000000 0.000000
vt 0.000000 0.000000
vt 1.000000 0.000000
vt 0.000000 1.000000
vt 0.000000 0.000000
vt 1.000000 1.000000
vt 1.000000 0.000000
vt 1.000000 0.000000
vt 0.000000 1.000000
vt 1.000000 1.000000
vt 1.000000 1.000000
vt 0.000000 0.000000
vt 1.000000 0.000000
vt 0.000000 0.000000
vt 1.000000 1.000000
vt 1.000000 1.000000
vt 1.000000 0.000000
vt 1.000000 0.000000
vt 1.000000 1.000000
vt 1.000000 0.000000
vt 1.000000 1.000000
vt 0.000000 1.000000
vt 1.000000 0.000000
vt 1.000000 1.000000
vt 1.000000 1.000000
vt 1.000000 1.000000
vt 1.000000 0.000000
vt 1.000000 0.000000
vt 1.000000 1.000000
vt 1.000000 1.000000
vt 1.000000 0.000000
vt 0.037011 0.000000
vt 0.037011 0.762570
vt 0.037011 0.000000
vt 0.037011 0.891026
vt 0.066362 0.891026
vt 0.066362 0.891026
vt 0.000000 0.000000
vt 0.000000 0.000000
vt 0.000000 0.000000
vt 0.626148 0.810722
vt 1.000000 0.891026
vt 1.000000 0.794641
vt 0.037011 0.891026
vt 0.066362 0.834801
vt 0.037011 0.834801
vt 0.000000 0.000000
vt 0.000000 0.000000
vt 0.000000 0.000000
vt 0.066362 0.762570
vt 0.037011 0.762570
vt 0.626148 0.762570
vt 1.000000 0.762570
vt 0.000000 0.000000
vt 0.000000 0.000000
vt 0.037011 0.834801
vt 0.037011 0.834801
vt 1.000000 0.000000
vt 0.626148 0.000000
vt 0.066362 0.000000
vt 0.037011 0.000000
vt 0.626148 1.000000
vt 1.000000 0.891026
vt 0.626148 0.891026
vt 0.000000 1.000000
vt 0.037011 0.891026
vt 0.000000 0.891026
vt 0.000000 0.834801
vt 0.037011 0.834801
vt 0.037011 1.000000
vt 0.066362 0.891026
vt 0.000000 0.762570
vt 0.037011 0.762570
vt 0.037011 0.000000
vt 0.000000 0.000000
vt 0.000000 0.000000
vt 0.000000 0.000000
vt 0.000000 0.000000
vt 0.037011 0.762570
vt 0.000000 0.000000
vt 0.000000 0.000000
vt 0.000000 0.000000
vt 0.000000 0.000000
vt 0.000000 0.000000
vt 0.626148 0.891026
vt 1.000000 0.891026
vt 0.626148 0.891026
vt 0.000000 0.000000
vt 0.000000 0.000000
vt 0.000000 0.000000
vt 0.066362 0.891026
vt 0.540059 0.891026
vt 0.066362 0.891026
vt 0.000000 0.000000
vt 0.000000 0.000000
vt 0.066362 1.000000
vt 0.540058 0.891026
vt 0.540059 0.000000
vt 0.540058 0.814425
vt 0.540058 0.762570
vt 0.540059 0.891026
vt 0.000000 0.000000
vt 0.000000 0.000000
vt 0.540058 0.891026
vt 0.540059 1.000000
vt 0.548393 0.814067
vt 0.619083 0.805914
vt 0.626148 0.891026
vt 0.548393 0.884799
vt 0.037011 0.762570
vt 0.037011 0.000000
vt 0.037011 0.000000
vt 0.037011 0.891026
vt 0.066362 0.891026
vt 0.037011 0.891026
vt 0.000000 0.000000
vt 0.000000 0.000000
vt 0.000000 0.000000
vt 0.626148 0.810722
vt 0.626148 0.891026
vt 0.066362 0.834801
vt 0.037011 0.891026
vt 0.037011 0.834801
vt 0.000000 0.000000
vt 0.000000 0.000000
vt 0.000000 0.000000
vt 0.066362 0.762570
vt 0.037011 0.762570
vt 0.626148 0.762570
vt 0.000000 0.000000
vt 0.000000 0.000000
vt 0.037011 0.834801
vt 0.037011 0.834801
vt 0.626148 0.000000
vt 0.066362 0.000000
vt 0.037011 0.000000
vt 0.626148 1.000000
vt 0.626148 0.891026
vt 0.037011 0.891026
vt 0.000000 1.000000
vt 0.000000 0.891026
vt 0.000000 0.834801
vt 0.066362 0.891026
vt 0.037011 1.000000
vt 0.000000 0.762570
vt 0.037011 0.834801
vt 0.037011 0.000000
vt 0.000000 0.000000
vt 0.000000 0.000000
vt 0.000000 0.000000
vt 0.000000 0.000000
vt 0.037011 0.762570
vt 0.000000 0.000000
vt 0.000000 0.000000
vt 0.000000 0.000000
vt 0.000000 0.000000
vt 0.000000 0.000000
vt 0.626148 0.891026
vt 0.626148 0.891026
vt 0.000000 0.000000
vt 0.000000 0.000000
vt 0.000000 0.000000
vt 0.540059 0.891026
vt 0.066362 0.891026
vt 0.066362 0.891026
vt 0.000000 0.000000
vt 0.000000 0.000000
vt 0.540058 0.891026
vt 0.066362 1.000000
vt 0.540059 0.000000
vt 0.540058 0.814425
vt 0.540059 0.891026
vt 0.066362 0.891026
vt 0.540058 0.891026
vt 0.540059 1.000000
vt 0.540058 0.762570
vt 0.548393 0.814067
vt 0.619084 0.884798
vt 0.619083 0.811026
vt 0.037011 0.762570
vt 0.037011 0.000000
vt 0.037011 0.000000
vt 0.037011 0.891026
vt 0.066362 0.891026
vt 0.037011 0.891026
vt 0.000000 0.000000
vt 0.000000 0.000000
vt 0.000000 0.000000
vt 0.626148 0.810722
vt 1.000000 0.891026
vt 0.626148 0.891026
vt 0.066362 0.834801
vt 0.037011 0.891026
vt 0.037011 0.834801
vt 0.000000 0.000000
vt 0.000000 0.000000
vt 0.000000 0.000000
vt 0.066362 0.762570
vt 0.037011 0.762570
vt 0.626148 0.762570
vt 1.000000 0.794641
vt 0.000000 0.000000
vt 0.000000 0.000000
vt 0.037011 0.834801
vt 0.037011 0.834801
vt 1.000000 0.891026
vt 0.626148 1.000000
vt 0.626148 0.891026
vt 0.037011 0.891026
vt 0.000000 1.000000
vt 0.000000 0.891026
vt 0.000000 0.834801
vt 0.066362 0.891026
vt 0.037011 1.000000
vt 0.000000 0.762570
vt 0.037011 0.834801
vt 0.037011 0.000000
vt 0.000000 0.000000
vt 0.000000 0.000000
vt 0.000000 0.000000
vt 0.000000 0.000000
vt 0.037011 0.762570
vt 0.000000 0.000000
vt 0.000000 0.000000
vt 0.000000 0.000000
vt 0.000000 0.000000
vt 0.000000 0.000000
vt 1.000000 0.891026
vt 0.626148 0.891026
vt 0.626148 0.891026
vt 0.000000 0.000000
vt 0.000000 0.000000
vt 0.000000 0.000000
vt 0.540059 0.891026
vt 0.066362 0.891026
vt 0.066362 0.891026
vt 0.000000 0.000000
vt 0.000000 0.000000
vt 0.540058 0.891026
vt 0.066362 1.000000
vt 0.540058 0.814425
vt 0.540059 0.891026
vt 0.066362 0.891026
vt 0.000000 0.000000
vt 0.000000 0.000000
vt 0.540058 0.891026
vt 0.540059 1.000000
vt 0.540058 0.762570
vt 0.548393 0.814067
vt 0.619084 0.884798
vt 0.619083 0.811026
vt 0.037011 0.000000
vt 0.037011 0.762570
vt 0.037011 0.000000
vt 0.037011 0.891026
vt 0.066362 0.891026
vt 0.066362 0.891026
vt 0.000000 0.000000
vt 0.000000 0.000000
vt 0.000000 0.000000
vt 0.626148 0.810722
vt 0.037011 0.891026
vt 0.066362 0.834801
vt 0.037011 0.834801
vt 0.000000 0.000000
vt 0.000000 0.000000
vt 0.000000 0.000000
vt 0.066362 0.762570
vt 0.037011 0.762570
vt 0.626148 0.762570
vt 1.000000 0.762570
vt 0.000000 0.000000
vt 0.000000 0.000000
vt 0.037011 0.834801
vt 0.037011 0.834801
vt 0.626148 1.000000
vt 0.626148 0.891026
vt 0.000000 1.000000
vt 0.037011 0.891026
vt 0.000000 0.891026
vt 0.000000 0.834801
vt 0.037011 0.834801
vt 0.037011 1.000000
vt 0.066362 0.891026
vt 0.000000 0.762570
vt 0.037011 0.762570
vt 0.037011 0.000000
vt 0.000000 0.000000
vt 0.000000 0.000000
vt 0.000000 0.000000
vt 0.000000 0.000000
vt 0.037011 0.762570
vt 0.000000 0.000000
vt 0.000000 0.000000
vt 0.000000 0.000000
vt 0.000000 0.000000
vt 0.000000 0.000000
vt 0.626148 0.891026
vt 0.626148 0.891026
vt 0.000000 0.000000
vt 0.000000 0.000000
vt 0.000000 0.000000
vt 0.066362 0.891026
vt 0.540059 0.891026
vt 0.066362 0.891026
vt 0.000000 0.000000
vt 0.000000 0.000000
vt 0.066362 1.000000
vt 0.540058 0.891026
vt 0.540058 0.814425
vt 0.540058 0.762570
vt 0.540059 0.891026
vt 0.540058 0.891026
vt 0.540059 1.000000
vt 0.548393 0.814067
vt 0.619083 0.805914
vt 0.626148 0.891026
vt 0.548393 0.884799
vt 0.037011 0.891026
vt 0.066362 0.891026
vt 0.000000 0.000000
vt 1.000000 1.000000
vt 0.000000 0.000000
vt 0.000000 0.000000
vt 0.000000 0.000000
vt 0.000000 0.000000
vt 1.000000 0.891026
vt 0.619083 0.811026
vt 0.619084 0.884798
vt 0.066362 0.891026
vt 0.037011 0.762570
vt 0.000000 0.000000
vt 0.000000 0.000000
vt 0.000000 0.000000
vt 0.000000 0.000000
vt 0.000000 0.000000
vt 0.619083 0.805914
vt 0.548393 0.884799
vt 0.066362 0.891026
vt 1.000000 1.000000
vt 0.037011 0.762570
vt 0.000000 0.000000
vt 1.000000 0.891026
vt 0.000000 0.000000
vt 0.619083 0.805914
vt 0.548393 0.884799
vt 0.037011 0.891026
vt 0.066362 0.891026
vt 0.000000 0.000000
vt 0.000000 0.000000
vt 0.619083 0.811026
vt 0.619084 0.884798
vn -0.0000 0.0000 -1.0000
vn 0.0000 -0.0000 1.0000
vn 1.0000 0.0000 0.0000
vn 0.0000 1.0000 0.0000
vn 0.0000 -1.0000 0.0000
vn -1.0000 -0.0000 0.0000
vn -0.9946 -0.1037 0.0000
vn -0.6610 -0.7504 0.0000
vn -0.4701 -0.8826 0.0000
vn 0.5825 0.8128 0.0000
vn 0.7471 0.6647 0.0000
vn 0.9683 0.2499 0.0000
vn -0.9163 -0.4004 0.0000
vn -0.0277 -0.9973 0.0684
vn -0.9946 -0.1038 0.0000
vn 0.0060 1.0000 0.0000
vn 0.0121 0.9999 0.0000
vn 0.9946 -0.1037 0.0000
vn 0.6610 -0.7504 0.0000
vn 0.4701 -0.8826 0.0000
vn -0.7471 0.6647 0.0000
vn -0.5825 0.8128 0.0000
vn -0.9683 0.2499 0.0000
vn 0.9163 -0.4004 0.0000
vn 0.0277 -0.9973 0.0684
vn -0.0060 1.0000 0.0000
vn -0.0121 0.9999 0.0000
vn -0.9946 0.1037 0.0000
vn -0.6610 0.7504 0.0000
vn -0.4701 0.8826 0.0000
vn 0.7471 -0.6647 0.0000
vn 0.5825 -0.8128 0.0000
vn 0.9683 -0.2499 0.0000
vn -0.9163 0.4004 0.0000
vn -0.0277 0.9973 0.0684
vn 0.0060 -1.0000 0.0000
vn 0.0121 -0.9999 0.0000
vn 0.9946 0.1037 0.0000
vn 0.6610 0.7504 0.0000
vn 0.4701 0.8826 0.0000
vn -0.5825 -0.8128 0.0000
vn -0.7471 -0.6647 0.0000
vn -0.9683 -0.2499 0.0000
vn 0.9163 0.4004 0.0000
vn 0.0277 0.9973 0.0684
vn 0.9946 0.1038 0.0000
vn -0.0060 -1.0000 0.0000
vn -0.0121 -0.9999 0.0000
usemtl None
s off
f 335/1/1 331/2/1 330/3/1
f 337/4/2 341/5/2 336/6/2
f 333/7/3 338/8/3 332/9/3
f 188/10/4 340/11/4 334/12/4
f 186/13/5 184/14/5 190/15/5
f 330/3/1 345/16/1 335/1/1
f 336/6/2 348/17/2 346/18/2
f 347/19/6 344/20/6 343/21/6
f 189/22/4 192/23/4 188/10/4
f 190/15/5 342/24/5 186/13/5
f 335/1/1 183/25/1 331/2/1
f 337/4/2 339/26/2 341/5/2
f 333/7/3 185/27/3 338/8/3
f 188/10/4 192/23/4 340/11/4
f 186/13/5 182/28/5 184/14/5
f 330/3/1 187/29/1 345/16/1
f 336/6/2 341/5/2 348/17/2
f 347/19/6 349/30/6 344/20/6
f 189/22/4 193/31/4 192/23/4
f 190/15/5 191/32/5 342/24/5
s 1
f 216/33/6 16/34/7 202/35/6
f 9/36/8 224/37/9 196/38/9
f 212/39/10 6/40/11 229/41/10
f 36/42/2 234/43/2 54/44/2
f 195/45/2 14/46/2 194/47/2
f 220/48/12 12/49/3 8/50/12
f 194/47/2 17/51/2 199/52/2
f 37/53/2 54/44/2 58/54/2
f 227/55/3 15/56/3 12/49/3
f 221/57/13 9/36/8 13/58/13
f 37/53/2 135/59/2 123/60/2
f 199/52/2 95/61/2 201/62/2
f 38/63/2 236/64/2 233/65/2
f 20/66/2 22/67/2 23/68/2
f 26/69/2 22/67/2 24/70/2
f 213/71/2 223/72/2 22/67/2
f 18/73/2 24/70/2 228/74/2
f 18/73/2 218/75/2 206/76/2
f 208/77/14 200/78/14 5/79/14
f 27/80/15 13/58/13 16/34/7
f 10/81/16 19/82/17 7/83/17
f 225/84/4 10/81/16 28/85/4
f 39/86/5 49/87/5 231/88/5
f 214/89/11 8/50/12 6/40/11
f 15/56/3 210/90/3 230/91/3
f 25/92/5 198/93/5 197/94/5
f 232/95/4 28/85/4 34/96/4
f 219/97/2 226/98/2 223/72/2
f 17/51/2 116/99/2 95/61/2
f 17/51/2 30/100/2 31/101/2
f 14/46/2 29/102/2 30/100/2
f 63/103/4 34/96/4 46/104/4
f 33/105/5 231/88/5 198/93/5
f 32/106/2 233/65/2 226/98/2
f 31/101/2 123/60/2 116/99/2
f 2/107/2 1/108/2 36/42/2
f 29/102/2 35/109/2 4/110/2
f 59/111/18 259/112/3 245/113/3
f 50/114/19 266/115/20 265/116/19
f 45/117/21 255/118/22 272/119/22
f 81/120/2 234/43/2 80/121/2
f 56/122/2 238/123/2 237/124/2
f 53/125/6 263/126/23 48/127/23
f 60/128/2 237/124/2 242/129/2
f 82/130/2 54/44/2 81/120/2
f 57/131/6 270/132/6 53/125/6
f 50/114/19 264/133/24 55/134/24
f 135/59/2 82/130/2 175/135/2
f 143/136/2 242/129/2 244/137/2
f 236/64/2 83/138/2 276/139/2
f 67/140/2 65/141/2 68/142/2
f 71/143/2 67/140/2 68/142/2
f 267/144/2 64/145/2 67/140/2
f 61/146/2 69/147/2 71/143/2
f 261/148/2 61/146/2 249/149/2
f 243/150/25 251/151/25 44/152/25
f 55/134/24 72/153/18 59/111/18
f 51/154/26 256/155/27 262/156/26
f 51/154/26 268/157/4 73/158/4
f 49/87/5 84/159/5 274/160/5
f 48/127/23 257/161/21 45/117/21
f 57/131/6 253/162/6 248/163/6
f 241/164/5 70/165/5 240/166/5
f 73/158/4 275/167/4 79/168/4
f 269/169/2 66/170/2 267/144/2
f 168/171/2 60/128/2 143/136/2
f 60/128/2 75/172/2 56/122/2
f 56/122/2 74/173/2 52/174/2
f 79/168/4 63/103/4 46/104/4
f 274/160/5 78/175/5 241/164/5
f 276/139/2 77/176/2 269/169/2
f 175/135/2 76/177/2 168/171/2
f 75/172/2 81/120/2 41/178/2
f 42/179/2 40/180/2 80/121/2
f 102/181/28 217/182/6 203/183/6
f 94/184/29 291/185/30 290/186/29
f 90/187/31 284/188/32 297/189/32
f 126/190/2 302/191/2 125/192/2
f 100/193/2 278/194/2 277/195/2
f 98/196/3 288/197/33 93/198/33
f 103/199/2 277/195/2 282/200/2
f 127/201/2 147/202/2 126/190/2
f 101/203/3 295/204/3 98/196/3
f 94/184/29 289/205/34 99/206/34
f 135/59/2 127/201/2 123/60/2
f 95/61/2 282/200/2 201/62/2
f 304/207/2 128/208/2 301/209/2
f 110/210/2 107/211/2 111/212/2
f 114/213/2 110/210/2 111/212/2
f 292/214/2 106/215/2 110/210/2
f 104/216/2 112/217/2 114/213/2
f 215/218/2 104/216/2 207/219/2
f 204/220/35 209/221/35 89/222/35
f 99/206/34 115/223/28 102/181/28
f 96/224/36 285/225/37 287/226/36
f 96/224/36 293/227/5 117/228/5
f 141/229/4 129/230/4 299/231/4
f 93/198/33 286/232/31 90/187/31
f 101/203/3 211/233/3 283/234/3
f 281/235/4 113/236/4 280/237/4
f 117/228/5 300/238/5 124/239/5
f 294/240/2 109/241/2 292/214/2
f 116/99/2 103/199/2 95/61/2
f 103/199/2 119/242/2 100/193/2
f 100/193/2 118/243/2 97/244/2
f 124/239/5 157/245/5 137/246/5
f 299/231/4 122/247/4 281/235/4
f 301/209/2 121/248/2 294/240/2
f 123/60/2 120/249/2 116/99/2
f 119/242/2 126/190/2 86/250/2
f 87/251/2 85/252/2 125/192/2
f 260/253/3 152/254/38 246/255/3
f 142/256/39 320/257/40 307/258/40
f 312/259/41 136/260/42 325/261/41
f 178/262/2 302/191/2 147/202/2
f 306/263/2 149/264/2 305/265/2
f 316/266/43 146/267/6 140/268/43
f 305/265/2 153/269/2 310/270/2
f 179/271/2 147/202/2 151/272/2
f 323/273/6 150/274/6 146/267/6
f 317/275/44 142/256/39 148/276/44
f 179/271/2 135/59/2 175/135/2
f 310/270/2 143/136/2 244/137/2
f 180/277/2 304/207/2 329/278/2
f 159/279/2 162/280/2 163/281/2
f 166/282/2 162/280/2 164/283/2
f 313/284/2 319/285/2 162/280/2
f 154/286/2 164/283/2 324/287/2
f 154/286/2 258/288/2 250/289/2
f 252/290/45 247/291/45 134/292/45
f 167/293/46 148/276/44 152/254/38
f 144/294/47 158/295/48 139/296/48
f 321/297/5 144/294/47 169/298/5
f 181/299/4 141/229/4 327/300/4
f 314/301/42 140/268/43 136/260/42
f 150/274/6 254/302/6 326/303/6
f 165/304/4 309/305/4 308/306/4
f 328/307/5 169/298/5 176/308/5
f 315/309/2 322/310/2 319/285/2
f 153/269/2 168/171/2 143/136/2
f 153/269/2 171/311/2 172/312/2
f 149/264/2 170/313/2 171/311/2
f 157/245/5 176/308/5 137/246/5
f 174/314/4 327/300/4 309/305/4
f 173/315/2 329/278/2 322/310/2
f 172/312/2 175/135/2 168/171/2
f 131/316/2 130/317/2 178/262/2
f 170/313/2 177/318/2 133/319/2
f 216/33/6 27/80/15 16/34/7
f 9/36/8 222/320/8 224/37/9
f 212/39/10 214/89/11 6/40/11
f 36/42/2 35/109/2 234/43/2
f 195/45/2 11/321/2 14/46/2
f 220/48/12 227/55/3 12/49/3
f 194/47/2 14/46/2 17/51/2
f 37/53/2 36/42/2 54/44/2
f 227/55/3 205/322/3 15/56/3
f 221/57/13 222/320/8 9/36/8
f 37/53/2 58/54/2 135/59/2
f 199/52/2 17/51/2 95/61/2
f 38/63/2 235/323/2 236/64/2
f 20/66/2 213/71/2 22/67/2
f 26/69/2 23/68/2 22/67/2
f 213/71/2 219/97/2 223/72/2
f 18/73/2 26/69/2 24/70/2
f 18/73/2 228/74/2 218/75/2
f 105/324/5 108/325/5 91/326/5
f 27/80/15 221/57/13 13/58/13
f 10/81/16 21/327/16 19/82/17
f 225/84/4 21/327/16 10/81/16
f 39/86/5 62/328/5 49/87/5
f 214/89/11 220/48/12 8/50/12
f 15/56/3 205/322/3 210/90/3
f 25/92/5 33/105/5 198/93/5
f 232/95/4 225/84/4 28/85/4
f 219/97/2 32/106/2 226/98/2
f 17/51/2 31/101/2 116/99/2
f 17/51/2 14/46/2 30/100/2
f 14/46/2 11/321/2 29/102/2
f 63/103/4 232/95/4 34/96/4
f 33/105/5 39/86/5 231/88/5
f 32/106/2 38/63/2 233/65/2
f 31/101/2 37/53/2 123/60/2
f 37/53/2 31/101/2 36/42/2
f 31/101/2 30/100/2 36/42/2
f 30/100/2 2/107/2 36/42/2
f 2/107/2 30/100/2 29/102/2
f 35/109/2 36/42/2 1/329/2
f 35/109/2 1/329/2 3/330/2
f 4/110/2 2/107/2 29/102/2
f 35/109/2 3/330/2 4/110/2
f 59/111/18 72/153/18 259/112/3
f 50/114/19 239/331/20 266/115/20
f 45/117/21 257/161/21 255/118/22
f 81/120/2 54/44/2 234/43/2
f 56/122/2 52/174/2 238/123/2
f 53/125/6 270/132/6 263/126/23
f 60/128/2 56/122/2 237/124/2
f 82/130/2 58/54/2 54/44/2
f 57/131/6 248/163/6 270/132/6
f 50/114/19 265/116/19 264/133/24
f 135/59/2 58/54/2 82/130/2
f 143/136/2 60/128/2 242/129/2
f 236/64/2 235/323/2 83/138/2
f 67/140/2 64/145/2 65/141/2
f 71/143/2 69/147/2 67/140/2
f 267/144/2 66/170/2 64/145/2
f 61/146/2 271/332/2 69/147/2
f 261/148/2 271/332/2 61/146/2
f 138/333/5 160/334/5 155/335/5
f 55/134/24 264/133/24 72/153/18
f 51/154/26 47/336/27 256/155/27
f 51/154/26 262/156/26 268/157/4
f 49/87/5 62/328/5 84/159/5
f 48/127/23 263/126/23 257/161/21
f 57/131/6 273/337/6 253/162/6
f 241/164/5 78/175/5 70/165/5
f 73/158/4 268/157/4 275/167/4
f 269/169/2 77/176/2 66/170/2
f 168/171/2 76/177/2 60/128/2
f 60/128/2 76/177/2 75/172/2
f 56/122/2 75/172/2 74/173/2
f 79/168/4 275/167/4 63/103/4
f 274/160/5 84/159/5 78/175/5
f 276/139/2 83/138/2 77/176/2
f 175/135/2 82/130/2 76/177/2
f 75/172/2 76/177/2 81/120/2
f 76/177/2 82/130/2 81/120/2
f 81/120/2 40/338/2 41/178/2
f 74/173/2 75/172/2 41/178/2
f 74/173/2 41/178/2 43/339/2
f 40/180/2 81/120/2 80/121/2
f 74/173/2 43/339/2 80/121/2
f 43/339/2 42/179/2 80/121/2
f 102/181/28 115/223/28 217/182/6
f 94/184/29 279/340/30 291/185/30
f 90/187/31 286/232/31 284/188/32
f 126/190/2 147/202/2 302/191/2
f 100/193/2 97/244/2 278/194/2
f 98/196/3 295/204/3 288/197/33
f 103/199/2 100/193/2 277/195/2
f 127/201/2 151/272/2 147/202/2
f 101/203/3 283/234/3 295/204/3
f 94/184/29 290/186/29 289/205/34
f 135/59/2 151/272/2 127/201/2
f 95/61/2 103/199/2 282/200/2
f 304/207/2 303/341/2 128/208/2
f 110/210/2 106/215/2 107/211/2
f 114/213/2 112/217/2 110/210/2
f 292/214/2 109/241/2 106/215/2
f 104/216/2 296/342/2 112/217/2
f 215/218/2 296/342/2 104/216/2
f 99/206/34 289/205/34 115/223/28
f 96/224/36 92/343/37 285/225/37
f 96/224/36 287/226/36 293/227/5
f 141/229/4 156/344/4 129/230/4
f 93/198/33 288/197/33 286/232/31
f 101/203/3 298/345/3 211/233/3
f 281/235/4 122/247/4 113/236/4
f 117/228/5 293/227/5 300/238/5
f 294/240/2 121/248/2 109/241/2
f 116/99/2 120/249/2 103/199/2
f 103/199/2 120/249/2 119/242/2
f 100/193/2 119/242/2 118/243/2
f 124/239/5 300/238/5 157/245/5
f 299/231/4 129/230/4 122/247/4
f 301/209/2 128/208/2 121/248/2
f 123/60/2 127/201/2 120/249/2
f 119/242/2 120/249/2 126/190/2
f 120/249/2 127/201/2 126/190/2
f 126/190/2 85/346/2 86/250/2
f 118/243/2 119/242/2 86/250/2
f 118/243/2 86/250/2 88/347/2
f 85/252/2 126/190/2 125/192/2
f 118/243/2 88/347/2 125/192/2
f 88/347/2 87/251/2 125/192/2
f 260/253/3 167/293/46 152/254/38
f 142/256/39 318/348/39 320/257/40
f 312/259/41 314/301/42 136/260/42
f 178/262/2 177/318/2 302/191/2
f 306/263/2 145/349/2 149/264/2
f 316/266/43 323/273/6 146/267/6
f 305/265/2 149/264/2 153/269/2
f 179/271/2 178/262/2 147/202/2
f 323/273/6 311/350/6 150/274/6
f 317/275/44 318/348/39 142/256/39
f 179/271/2 151/272/2 135/59/2
f 310/270/2 153/269/2 143/136/2
f 180/277/2 303/341/2 304/207/2
f 159/279/2 313/284/2 162/280/2
f 166/282/2 163/281/2 162/280/2
f 313/284/2 315/309/2 319/285/2
f 154/286/2 166/282/2 164/283/2
f 154/286/2 324/287/2 258/288/2
f 167/293/46 317/275/44 148/276/44
f 144/294/47 161/351/47 158/295/48
f 321/297/5 161/351/47 144/294/47
f 181/299/4 156/344/4 141/229/4
f 314/301/42 316/266/43 140/268/43
f 150/274/6 311/350/6 254/302/6
f 165/304/4 174/314/4 309/305/4
f 328/307/5 321/297/5 169/298/5
f 315/309/2 173/315/2 322/310/2
f 153/269/2 172/312/2 168/171/2
f 153/269/2 149/264/2 171/311/2
f 149/264/2 145/349/2 170/313/2
f 157/245/5 328/307/5 176/308/5
f 174/314/4 181/299/4 327/300/4
f 173/315/2 180/277/2 329/278/2
f 172/312/2 179/271/2 175/135/2
f 179/271/2 172/312/2 178/262/2
f 172/312/2 171/311/2 178/262/2
f 171/311/2 131/316/2 178/262/2
f 131/316/2 171/311/2 170/313/2
f 177/318/2 178/262/2 130/352/2
f 177/318/2 130/352/2 132/353/2
f 133/319/2 131/316/2 170/313/2
f 177/318/2 132/353/2 133/319/2
