# Blender v2.83.5 OBJ File: 'placa.blend'
# www.blender.org
mtllib placa.mtl
o Plane
v 0.196846 0.061199 0.000000
v 0.185810 0.065000 0.000000
v 0.200000 0.053874 0.000000
v 0.185810 0.053874 0.000000
v 0.192262 0.064015 0.000000
v 0.192414 0.053874 0.000000
v 0.199056 0.057195 0.000000
v 0.185810 0.057335 0.000000
v 0.189783 0.053874 0.000000
v 0.190515 0.056611 0.000000
v 0.188276 0.057345 0.000000
v 0.199056 0.057195 0.002000
v 0.196846 0.061199 0.002000
v 0.185810 0.065000 0.002000
v 0.192262 0.064015 0.002000
v 0.185810 0.057335 0.002000
v 0.200000 0.053874 0.002000
v 0.192414 0.053874 0.002000
v 0.190515 0.056611 0.002000
v 0.188276 0.057345 0.002000
v 0.098246 0.065000 0.000000
v 0.098246 0.053874 0.000000
v 0.098246 0.057335 0.000000
v 0.098246 0.065000 0.002000
v 0.098246 0.057335 0.002000
v 0.071227 0.065000 0.000000
v 0.071227 0.053874 0.000000
v 0.071227 0.057335 0.000000
v 0.071227 0.065000 0.002000
v 0.071227 0.057335 0.002000
v 0.093723 0.051515 0.000000
v 0.093723 0.055803 0.000000
v 0.093998 0.053874 0.000000
v 0.092171 0.050383 0.000000
v 0.092171 0.056934 0.000000
v 0.078424 0.050383 0.000000
v 0.078424 0.056934 0.000000
v 0.076873 0.051515 0.000000
v 0.076873 0.055803 0.000000
v 0.076598 0.053874 0.000000
v 0.000000 0.065000 0.000000
v -0.196846 0.061199 0.000000
v -0.185810 0.065000 0.000000
v 0.000000 0.053874 0.000000
v -0.200000 0.053874 0.000000
v -0.185810 0.053874 0.000000
v -0.192262 0.064015 0.000000
v -0.192414 0.053874 0.000000
v -0.199056 0.057195 0.000000
v -0.185810 0.057335 0.000000
v 0.000000 0.057335 0.000000
v -0.189783 0.053874 0.000000
v -0.190515 0.056611 0.000000
v -0.188276 0.057345 0.000000
v -0.199056 0.057195 0.002000
v -0.196846 0.061199 0.002000
v -0.185810 0.065000 0.002000
v 0.000000 0.065000 0.002000
v -0.192262 0.064015 0.002000
v -0.185810 0.057335 0.002000
v -0.200000 0.053874 0.002000
v -0.192414 0.053874 0.002000
v 0.000000 0.057335 0.002000
v -0.190515 0.056611 0.002000
v -0.188276 0.057345 0.002000
v -0.098246 0.065000 0.000000
v -0.098246 0.053874 0.000000
v -0.098246 0.057335 0.000000
v -0.098246 0.065000 0.002000
v -0.098246 0.057335 0.002000
v -0.071227 0.065000 0.000000
v -0.071227 0.053874 0.000000
v -0.071227 0.057335 0.000000
v -0.071227 0.065000 0.002000
v -0.071227 0.057335 0.002000
v -0.093723 0.051515 0.000000
v -0.093723 0.055803 0.000000
v -0.093998 0.053874 0.000000
v -0.092171 0.050383 0.000000
v -0.092171 0.056934 0.000000
v -0.078424 0.050383 0.000000
v -0.078424 0.056934 0.000000
v -0.076873 0.051515 0.000000
v -0.076873 0.055803 0.000000
v -0.076598 0.053874 0.000000
v 0.200000 -0.000000 0.000000
v 0.196846 -0.061199 -0.000000
v 0.185810 -0.000000 0.000000
v 0.185810 -0.065000 -0.000000
v 0.200000 -0.053874 -0.000000
v 0.185810 -0.053874 -0.000000
v 0.192414 -0.000000 0.000000
v 0.192262 -0.064015 -0.000000
v 0.192414 -0.053874 -0.000000
v 0.199056 -0.057195 -0.000000
v 0.185810 -0.057335 -0.000000
v 0.189783 -0.053874 -0.000000
v 0.189783 -0.000000 0.000000
v 0.190515 -0.056611 -0.000000
v 0.188276 -0.057345 -0.000000
v 0.192414 -0.000000 0.002000
v 0.200000 -0.000000 0.002000
v 0.199056 -0.057195 0.002000
v 0.196846 -0.061199 0.002000
v 0.185810 -0.065000 0.002000
v 0.192262 -0.064015 0.002000
v 0.185810 -0.057335 0.002000
v 0.200000 -0.053874 0.002000
v 0.192414 -0.053874 0.002000
v 0.190515 -0.056611 0.002000
v 0.188276 -0.057345 0.002000
v 0.098246 -0.065000 -0.000000
v 0.098246 -0.000000 0.000000
v 0.098246 -0.053874 -0.000000
v 0.098246 -0.057335 -0.000000
v 0.098246 -0.065000 0.002000
v 0.098246 -0.057335 0.002000
v 0.071227 -0.065000 -0.000000
v 0.071227 -0.053874 -0.000000
v 0.071227 -0.057335 -0.000000
v 0.071227 -0.065000 0.002000
v 0.071227 -0.057335 0.002000
v 0.071227 -0.000000 0.000000
v 0.093723 -0.051515 -0.000000
v 0.093723 -0.055803 -0.000000
v 0.093998 -0.053874 -0.000000
v 0.092171 -0.050383 -0.000000
v 0.092171 -0.056934 -0.000000
v 0.078424 -0.050383 -0.000000
v 0.078424 -0.056934 -0.000000
v 0.076873 -0.051515 -0.000000
v 0.076873 -0.055803 -0.000000
v 0.076598 -0.053874 -0.000000
v 0.000000 -0.000000 0.000000
v -0.200000 -0.000000 0.000000
v 0.000000 -0.065000 -0.000000
v -0.196846 -0.061199 -0.000000
v -0.185810 -0.000000 0.000000
v -0.185810 -0.065000 -0.000000
v 0.000000 -0.053874 -0.000000
v -0.200000 -0.053874 -0.000000
v -0.185810 -0.053874 -0.000000
v -0.192414 -0.000000 0.000000
v -0.192262 -0.064015 -0.000000
v -0.192414 -0.053874 -0.000000
v -0.199056 -0.057195 -0.000000
v -0.185810 -0.057335 -0.000000
v 0.000000 -0.057335 -0.000000
v -0.189783 -0.053874 -0.000000
v -0.189783 -0.000000 0.000000
v -0.190515 -0.056611 -0.000000
v -0.188276 -0.057345 -0.000000
v -0.192414 -0.000000 0.002000
v -0.200000 -0.000000 0.002000
v -0.199056 -0.057195 0.002000
v -0.196846 -0.061199 0.002000
v -0.185810 -0.065000 0.002000
v 0.000000 -0.065000 0.002000
v -0.192262 -0.064015 0.002000
v -0.185810 -0.057335 0.002000
v -0.200000 -0.053874 0.002000
v -0.192414 -0.053874 0.002000
v 0.000000 -0.057335 0.002000
v -0.190515 -0.056611 0.002000
v -0.188276 -0.057345 0.002000
v -0.098246 -0.065000 -0.000000
v -0.098246 -0.000000 0.000000
v -0.098246 -0.053874 -0.000000
v -0.098246 -0.057335 -0.000000
v -0.098246 -0.065000 0.002000
v -0.098246 -0.057335 0.002000
v -0.071227 -0.065000 -0.000000
v -0.071227 -0.053874 -0.000000
v -0.071227 -0.057335 -0.000000
v -0.071227 -0.065000 0.002000
v -0.071227 -0.057335 0.002000
v -0.071227 -0.000000 0.000000
v -0.093723 -0.051515 -0.000000
v -0.093723 -0.055803 -0.000000
v -0.093998 -0.053874 -0.000000
v -0.092171 -0.050383 -0.000000
v -0.092171 -0.056934 -0.000000
v -0.078424 -0.050383 -0.000000
v -0.078424 -0.056934 -0.000000
v -0.076873 -0.051515 -0.000000
v -0.076873 -0.055803 -0.000000
v -0.076598 -0.053874 -0.000000
v 0.192414 -0.000000 0.000000
v 0.192414 0.053874 0.000000
v 0.192414 0.053874 0.000000
v 0.071227 0.057335 0.000000
v 0.000000 0.057335 0.000000
v 0.190515 0.056611 0.000000
v 0.190515 0.056611 0.000000
v 0.188276 0.057345 0.000000
v 0.185810 0.057335 0.000000
v 0.190515 0.056611 0.002000
v 0.190515 0.056611 0.002000
v 0.199056 0.057195 0.002000
v 0.196846 0.061199 0.002000
v 0.071227 0.065000 0.002000
v 0.000000 0.065000 0.002000
v 0.192262 0.064015 0.002000
v 0.185810 0.065000 0.002000
v 0.200000 -0.000000 0.002000
v 0.200000 0.053874 0.002000
v 0.192414 -0.000000 0.002000
v 0.192414 0.053874 0.002000
v 0.192414 0.053874 0.002000
v 0.071227 0.057335 0.002000
v 0.000000 0.057335 0.002000
v 0.188276 0.057345 0.002000
v 0.185810 0.057335 0.002000
v 0.098246 0.057335 0.000000
v 0.098246 0.065000 0.002000
v 0.098246 0.057335 0.002000
v -0.192414 -0.000000 0.000000
v -0.192414 0.053874 0.000000
v -0.192414 0.053874 0.000000
v -0.071227 0.057335 0.000000
v -0.190515 0.056611 0.000000
v -0.190515 0.056611 0.000000
v -0.188276 0.057345 0.000000
v -0.185810 0.057335 0.000000
v -0.190515 0.056611 0.002000
v -0.190515 0.056611 0.002000
v -0.199056 0.057195 0.002000
v -0.196846 0.061199 0.002000
v -0.071227 0.065000 0.002000
v -0.192262 0.064015 0.002000
v -0.185810 0.065000 0.002000
v -0.200000 -0.000000 0.002000
v -0.200000 0.053874 0.002000
v -0.192414 -0.000000 0.002000
v -0.192414 0.053874 0.002000
v -0.192414 0.053874 0.002000
v -0.071227 0.057335 0.002000
v -0.188276 0.057345 0.002000
v -0.185810 0.057335 0.002000
v -0.098246 0.057335 0.000000
v -0.098246 0.065000 0.002000
v -0.098246 0.057335 0.002000
v 0.192414 -0.053874 -0.000000
v 0.192414 -0.053874 -0.000000
v 0.071227 -0.057335 -0.000000
v 0.000000 -0.057335 -0.000000
v 0.190515 -0.056611 -0.000000
v 0.190515 -0.056611 -0.000000
v 0.188276 -0.057345 -0.000000
v 0.185810 -0.057335 -0.000000
v 0.190515 -0.056611 0.002000
v 0.190515 -0.056611 0.002000
v 0.199056 -0.057195 0.002000
v 0.196846 -0.061199 0.002000
v 0.071227 -0.065000 0.002000
v 0.000000 -0.065000 0.002000
v 0.192262 -0.064015 0.002000
v 0.185810 -0.065000 0.002000
v 0.200000 -0.053874 0.002000
v 0.192414 -0.053874 0.002000
v 0.192414 -0.053874 0.002000
v 0.071227 -0.057335 0.002000
v 0.000000 -0.057335 0.002000
v 0.188276 -0.057345 0.002000
v 0.185810 -0.057335 0.002000
v 0.098246 -0.057335 -0.000000
v 0.098246 -0.065000 0.002000
v 0.098246 -0.057335 0.002000
v -0.192414 -0.053874 -0.000000
v -0.192414 -0.053874 -0.000000
v -0.071227 -0.057335 -0.000000
v -0.190515 -0.056611 -0.000000
v -0.190515 -0.056611 -0.000000
v -0.188276 -0.057345 -0.000000
v -0.185810 -0.057335 -0.000000
v -0.190515 -0.056611 0.002000
v -0.190515 -0.056611 0.002000
v -0.199056 -0.057195 0.002000
v -0.196846 -0.061199 0.002000
v -0.071227 -0.065000 0.002000
v -0.192262 -0.064015 0.002000
v -0.185810 -0.065000 0.002000
v -0.200000 -0.053874 0.002000
v -0.192414 -0.053874 0.002000
v -0.192414 -0.053874 0.002000
v -0.071227 -0.057335 0.002000
v -0.188276 -0.057345 0.002000
v -0.185810 -0.057335 0.002000
v -0.098246 -0.057335 -0.000000
v -0.098246 -0.065000 0.002000
v -0.098246 -0.057335 0.002000
vt 1.989791 1.308651
vt 1.255510 1.308651
vt 1.255510 1.308651
vt 0.431664 1.420593
vt 1.028946 1.420593
vt 1.028946 1.420593
vt 2.010468 1.308786
vt 1.989791 1.308651
vt 2.100863 1.306594
vt 2.082327 1.365076
vt 2.100863 1.306594
vt 2.029244 1.298077
vt 2.010468 1.308786
vt 2.108779 1.258096
vt 2.108779 1.258096
vt 1.989791 1.308651
vt 1.255510 1.420593
vt 1.255510 1.308651
vt 2.108779 0.471264
vt 2.045165 1.258096
vt 2.045165 0.471264
vt 2.100863 1.306594
vt 2.029244 1.298077
vt 2.082327 1.365076
vt 2.043892 1.406200
vt 1.989791 1.420593
vt 2.010468 1.308786
vt 1.989791 1.420593
vt 2.043892 1.406200
vt 2.043892 1.406200
vt 2.029244 1.298077
vt 2.045165 1.258096
vt 2.029244 1.298077
vt 2.082327 1.365076
vt 2.045165 0.471264
vt 2.045165 1.258096
vt 2.045165 1.258096
vt 2.108779 0.471264
vt 2.108779 0.471264
vt 1.028946 1.420593
vt 1.028946 1.308651
vt 1.255510 1.420593
vt 1.989791 1.420593
vt 1.028946 1.308651
vt 1.028946 1.308651
vt 0.431664 1.308651
vt 0.431664 1.308651
vt 0.431664 1.420593
vt 0.431664 1.308651
vt 1.255510 1.420593
vt -0.392181 1.308651
vt -1.126462 1.308651
vt -0.392181 1.308651
vt -0.165618 1.420593
vt -0.165618 1.420593
vt -1.126462 1.308651
vt -1.147140 1.308786
vt -1.237535 1.306594
vt -1.218999 1.365076
vt -1.218999 1.365076
vt -1.147140 1.308786
vt -1.165917 1.298077
vt -1.245450 1.258096
vt -1.245450 1.258096
vt -0.392181 1.420593
vt -1.126462 1.308651
vt -0.392181 1.308651
vt -1.181837 1.258096
vt -1.245450 0.471264
vt -1.181837 0.471264
vt -1.237535 1.306594
vt -1.245450 1.258096
vt -1.218999 1.365076
vt -1.165917 1.298077
vt -1.180565 1.406200
vt -1.147140 1.308786
vt -1.126462 1.420593
vt -1.180565 1.406200
vt -1.126462 1.420593
vt -1.180565 1.406200
vt -1.165917 1.298077
vt -1.181837 1.258096
vt -1.181837 1.258096
vt -1.181837 1.258096
vt -1.181837 0.471264
vt -1.181837 1.258096
vt -1.245450 0.471264
vt -1.245450 0.471264
vt -0.165618 1.420593
vt -0.165618 1.308651
vt -1.126462 1.420593
vt -0.392181 1.420593
vt -0.165618 1.308651
vt -0.165618 1.308651
vt -0.392181 1.420593
vt 1.255510 -0.366122
vt 1.989791 -0.366122
vt 1.255510 -0.366122
vt 1.028946 -0.478065
vt 0.431664 -0.478065
vt 1.028946 -0.478065
vt 1.989791 -0.366122
vt 2.010468 -0.366258
vt 2.100863 -0.364066
vt 2.082327 -0.422548
vt 2.082327 -0.422548
vt 2.010468 -0.366258
vt 2.029244 -0.355549
vt 2.108779 -0.315567
vt 2.108779 -0.315567
vt 1.255510 -0.478065
vt 1.989791 -0.366122
vt 1.255510 -0.366122
vt 2.045165 -0.315567
vt 2.100863 -0.364066
vt 2.108779 -0.315567
vt 2.082327 -0.422548
vt 2.029244 -0.355549
vt 2.043892 -0.463672
vt 2.010468 -0.366258
vt 1.989791 -0.478065
vt 2.043892 -0.463672
vt 1.989791 -0.478065
vt 2.043892 -0.463672
vt 2.029244 -0.355549
vt 2.045165 -0.315567
vt 2.045165 -0.315567
vt 2.045165 -0.315567
vt 2.045165 -0.315567
vt 1.028946 -0.478065
vt 1.028946 -0.366122
vt 1.989791 -0.478065
vt 1.255510 -0.478065
vt 1.028946 -0.366122
vt 1.028946 -0.366122
vt 0.431664 -0.366122
vt 0.431664 -0.366122
vt 0.431664 -0.478065
vt 0.431664 -0.366122
vt 1.255510 -0.478065
vt -1.126462 -0.366122
vt -0.392181 -0.366122
vt -0.392181 -0.366122
vt -0.165618 -0.478065
vt -0.165618 -0.478065
vt -1.147140 -0.366258
vt -1.126462 -0.366122
vt -1.237535 -0.364066
vt -1.218999 -0.422548
vt -1.237535 -0.364066
vt -1.165917 -0.355549
vt -1.147140 -0.366258
vt -1.245450 -0.315567
vt -1.245450 -0.315567
vt -1.126462 -0.366122
vt -0.392181 -0.478065
vt -0.392181 -0.366122
vt -1.181837 -0.315567
vt -1.237535 -0.364066
vt -1.165917 -0.355549
vt -1.218999 -0.422548
vt -1.180565 -0.463672
vt -1.126462 -0.478065
vt -1.147140 -0.366258
vt -1.126462 -0.478065
vt -1.180565 -0.463672
vt -1.180565 -0.463672
vt -1.165917 -0.355549
vt -1.181837 -0.315567
vt -1.165917 -0.355549
vt -1.218999 -0.422548
vt -1.181837 -0.315567
vt -1.181837 -0.315567
vt -0.165618 -0.478065
vt -0.165618 -0.366122
vt -0.392181 -0.478065
vt -1.126462 -0.478065
vt -0.165618 -0.366122
vt -0.165618 -0.366122
vt -0.392181 -0.478065
vt 0.431664 1.420593
vt 2.029244 1.298077
vt 2.108779 1.258096
vt 2.045165 1.258096
vt 2.045165 0.471264
vt -1.237535 1.306594
vt -1.165917 1.298077
vt -1.165917 1.298077
vt -1.181837 0.471264
vt 0.431664 -0.478065
vt 2.100863 -0.364066
vt 2.029244 -0.355549
vt 2.029244 -0.355549
vt -1.165917 -0.355549
vt -1.245450 -0.315567
vt -1.181837 -0.315567
vt 0.920607 0.498336
vt 0.723777 0.799300
vt 0.723777 0.498336
vt 0.935451 0.498336
vt 0.929538 0.799300
vt 0.929538 0.498336
vt 0.920607 0.799300
vt 0.723777 0.818637
vt 0.931183 0.814593
vt 0.935451 0.799300
vt 0.920607 0.818637
vt 0.926150 0.818689
vt 0.679222 0.816397
vt 0.710123 0.816397
vt 0.710123 0.779800
vt 0.679222 0.779800
vt 0.663045 0.498336
vt 0.502939 0.799300
vt 0.502939 0.498336
vt 0.663045 0.799300
vt 0.502939 0.818637
vt 0.282099 0.799300
vt 0.085269 0.498336
vt 0.282099 0.498336
vt 0.076339 0.799300
vt 0.070426 0.498336
vt 0.076339 0.498336
vt 0.282099 0.818637
vt 0.085269 0.799300
vt 0.074693 0.814593
vt 0.070426 0.799300
vt 0.085269 0.818637
vt 0.079726 0.818689
vt 0.326655 0.816397
vt 0.342832 0.818637
vt 0.326655 0.779800
vt 0.295753 0.779800
vt 0.342832 0.498336
vt 0.342832 0.799300
vt 0.723777 0.197372
vt 0.929538 0.197372
vt 0.723777 0.178035
vt 0.920607 0.197372
vt 0.931183 0.182080
vt 0.935451 0.197372
vt 0.920607 0.178035
vt 0.926150 0.177983
vt 0.679222 0.180275
vt 0.663045 0.178035
vt 0.679222 0.216872
vt 0.710123 0.216872
vt 0.502939 0.197372
vt 0.502939 0.178035
vt 0.663045 0.197372
vt 0.282099 0.197372
vt 0.076339 0.197372
vt 0.085269 0.197372
vt 0.282099 0.178035
vt 0.074693 0.182080
vt 0.070426 0.197372
vt 0.085269 0.178035
vt 0.079726 0.177983
vt 0.326655 0.180275
vt 0.295753 0.180275
vt 0.295753 0.216872
vt 0.326655 0.216872
vt 0.342832 0.197372
vt 0.663045 0.818637
vt 0.675734 0.810074
vt 0.675116 0.799300
vt 0.714229 0.799300
vt 0.713611 0.810074
vt 0.713611 0.786123
vt 0.675734 0.786123
vt 0.330760 0.799300
vt 0.330142 0.810074
vt 0.292266 0.810074
vt 0.291648 0.799300
vt 0.295753 0.816397
vt 0.330142 0.786123
vt 0.292266 0.786123
vt 0.675116 0.197372
vt 0.675734 0.186598
vt 0.713611 0.186598
vt 0.714229 0.197372
vt 0.710123 0.180275
vt 0.675734 0.210549
vt 0.713611 0.210549
vt 0.342832 0.178035
vt 0.330142 0.186598
vt 0.330760 0.197372
vt 0.291648 0.197372
vt 0.292266 0.186598
vt 0.292266 0.210549
vt 0.330142 0.210549
vn 0.0000 -1.0000 0.0000
vn 0.0000 1.0000 0.0000
vn 0.0038 -1.0000 0.0000
vn 0.8755 0.4833 0.0000
vn -0.3112 -0.9503 0.0000
vn 0.9619 0.2734 0.0000
vn 0.0000 0.0000 1.0000
vn 0.1510 0.9885 0.0000
vn -0.8217 -0.5699 0.0000
vn 0.5234 0.8521 0.0000
vn -1.0000 0.0000 0.0000
vn 1.0000 0.0000 0.0000
vn -0.0038 -1.0000 0.0000
vn -0.8755 0.4833 0.0000
vn 0.3112 -0.9503 0.0000
vn -0.9619 0.2735 0.0000
vn -0.1510 0.9885 0.0000
vn 0.8217 -0.5699 0.0000
vn -0.5234 0.8521 0.0000
vn 0.0038 1.0000 0.0000
vn 0.8755 -0.4833 0.0000
vn -0.3112 0.9503 0.0000
vn 0.9619 -0.2734 0.0000
vn 0.1510 -0.9885 0.0000
vn -0.8217 0.5699 0.0000
vn 0.5234 -0.8521 0.0000
vn -0.0038 1.0000 0.0000
vn -0.8755 -0.4833 0.0000
vn 0.3112 0.9503 0.0000
vn -0.9619 -0.2734 0.0000
vn -0.1510 -0.9885 0.0000
vn 0.8217 0.5699 0.0000
vn -0.5234 -0.8521 0.0000
vn 0.5235 0.8521 0.0000
vn -0.9619 0.2734 0.0000
vn -0.5235 0.8521 0.0000
vn 0.5235 -0.8521 0.0000
vn -0.5235 -0.8521 0.0000
usemtl Material.001
s off
f 8/1/1 25/2/1 214/3/1
f 41/4/2 201/5/2 26/6/2
f 195/7/3 16/8/3 8/1/3
f 7/9/4 200/10/4 199/11/4
f 194/12/5 212/13/5 195/7/5
f 7/9/6 206/14/6 3/15/6
f 213/16/7 215/17/7 216/18/7
f 205/19/7 208/20/7 207/21/7
f 208/20/7 12/22/7 198/23/7
f 13/24/7 198/23/7 12/22/7
f 203/25/7 198/23/7 13/24/7
f 204/26/7 20/27/7 203/25/7
f 2/28/8 15/29/8 5/30/8
f 10/31/9 18/32/9 197/33/9
f 5/30/10 200/10/10 1/34/10
f 92/35/11 209/36/11 189/37/11
f 3/15/12 102/38/12 86/39/12
f 216/18/7 29/40/7 210/41/7
f 21/42/2 14/43/2 2/28/2
f 214/3/1 30/44/1 191/45/1
f 191/45/1 211/46/1 51/47/1
f 210/41/7 58/48/7 63/49/7
f 26/6/2 24/50/2 21/42/2
f 70/51/1 50/52/1 240/53/1
f 229/54/2 41/4/2 71/55/2
f 60/56/13 223/57/13 50/52/13
f 49/58/14 228/59/14 42/60/14
f 238/61/15 222/62/15 223/57/15
f 233/63/16 49/58/16 45/64/16
f 241/65/7 239/66/7 242/67/7
f 235/68/7 232/69/7 234/70/7
f 235/68/7 55/71/7 61/72/7
f 56/73/7 55/71/7 226/74/7
f 230/75/7 226/74/7 65/76/7
f 65/76/7 231/77/7 230/75/7
f 59/78/17 43/79/17 47/80/17
f 53/81/18 236/82/18 48/83/18
f 228/59/19 47/80/19 42/60/19
f 62/84/12 143/85/12 218/86/12
f 154/87/11 45/64/11 135/88/11
f 74/89/7 242/67/7 237/90/7
f 57/91/2 66/92/2 43/79/2
f 75/93/1 240/53/1 220/94/1
f 211/46/1 220/94/1 51/47/1
f 58/48/7 237/90/7 63/49/7
f 69/95/2 71/55/2 66/92/2
f 117/96/2 96/97/2 266/98/2
f 255/99/1 136/100/1 118/101/1
f 107/102/20 249/103/20 96/97/20
f 95/104/21 254/105/21 87/106/21
f 264/107/22 248/108/22 249/103/22
f 259/109/23 95/104/23 90/110/23
f 267/111/7 265/112/7 268/113/7
f 260/114/7 205/19/7 207/21/7
f 260/114/7 103/115/7 108/116/7
f 104/117/7 103/115/7 252/118/7
f 257/119/7 252/118/7 111/120/7
f 111/120/7 258/121/7 257/119/7
f 106/122/24 89/123/24 93/124/24
f 99/125/25 261/126/25 94/127/25
f 254/105/26 93/124/26 87/106/26
f 109/128/11 92/35/11 243/129/11
f 102/38/12 90/110/12 86/39/12
f 121/130/7 268/113/7 262/131/7
f 105/132/1 112/133/1 89/123/1
f 122/134/2 266/98/2 245/135/2
f 263/136/2 245/135/2 148/137/2
f 158/138/7 262/131/7 163/139/7
f 116/140/1 118/101/1 112/133/1
f 147/141/2 171/142/2 289/143/2
f 136/100/1 280/144/1 172/145/1
f 274/146/27 160/147/27 147/141/27
f 146/148/28 279/149/28 278/150/28
f 273/151/29 287/152/29 274/146/29
f 146/148/30 283/153/30 141/154/30
f 288/155/7 290/156/7 291/157/7
f 232/69/7 284/158/7 234/70/7
f 284/158/7 155/159/7 277/160/7
f 156/161/7 277/160/7 155/159/7
f 281/162/7 277/160/7 156/161/7
f 282/163/7 165/164/7 281/162/7
f 139/165/31 159/166/31 144/167/31
f 151/168/32 162/169/32 276/170/32
f 144/167/33 279/149/33 137/171/33
f 143/85/12 285/172/12 269/173/12
f 141/154/11 154/87/11 135/88/11
f 291/157/7 175/174/7 286/175/7
f 166/176/1 157/177/1 139/165/1
f 289/143/2 176/178/2 271/179/2
f 271/179/2 263/136/2 148/137/2
f 286/175/7 158/138/7 163/139/7
f 172/145/1 170/180/1 166/176/1
f 8/1/1 16/8/1 25/2/1
f 41/4/2 202/181/2 201/5/2
f 195/7/3 212/13/3 16/8/3
f 7/9/4 1/34/4 200/10/4
f 194/12/5 19/182/5 212/13/5
f 7/9/6 199/11/6 206/14/6
f 213/16/7 204/26/7 215/17/7
f 205/19/7 17/183/7 208/20/7
f 208/20/7 17/183/7 12/22/7
f 203/25/7 20/27/7 198/23/7
f 204/26/7 213/16/7 20/27/7
f 2/28/8 14/43/8 15/29/8
f 10/31/9 6/184/9 18/32/9
f 5/30/34 15/29/34 200/10/34
f 92/35/11 101/185/11 209/36/11
f 3/15/12 206/14/12 102/38/12
f 216/18/7 215/17/7 29/40/7
f 21/42/2 24/50/2 14/43/2
f 214/3/1 25/2/1 30/44/1
f 191/45/1 30/44/1 211/46/1
f 210/41/7 29/40/7 58/48/7
f 26/6/2 201/5/2 24/50/2
f 70/51/1 60/56/1 50/52/1
f 229/54/2 202/181/2 41/4/2
f 60/56/13 238/61/13 223/57/13
f 49/58/14 227/186/14 228/59/14
f 238/61/15 225/187/15 222/62/15
f 233/63/35 227/186/35 49/58/35
f 241/65/7 231/77/7 239/66/7
f 235/68/7 61/72/7 232/69/7
f 235/68/7 226/74/7 55/71/7
f 230/75/7 56/73/7 226/74/7
f 65/76/7 239/66/7 231/77/7
f 59/78/17 57/91/17 43/79/17
f 53/81/18 64/188/18 236/82/18
f 228/59/36 59/78/36 47/80/36
f 62/84/12 153/189/12 143/85/12
f 154/87/11 233/63/11 45/64/11
f 74/89/7 241/65/7 242/67/7
f 57/91/2 69/95/2 66/92/2
f 75/93/1 70/51/1 240/53/1
f 211/46/1 75/93/1 220/94/1
f 58/48/7 74/89/7 237/90/7
f 69/95/2 229/54/2 71/55/2
f 117/96/2 107/102/2 96/97/2
f 255/99/1 256/190/1 136/100/1
f 107/102/20 264/107/20 249/103/20
f 95/104/21 253/191/21 254/105/21
f 264/107/22 251/192/22 248/108/22
f 259/109/23 253/191/23 95/104/23
f 267/111/7 258/121/7 265/112/7
f 260/114/7 108/116/7 205/19/7
f 260/114/7 252/118/7 103/115/7
f 257/119/7 104/117/7 252/118/7
f 111/120/7 265/112/7 258/121/7
f 106/122/24 105/132/24 89/123/24
f 99/125/25 110/193/25 261/126/25
f 254/105/37 106/122/37 93/124/37
f 109/128/11 101/185/11 92/35/11
f 102/38/12 259/109/12 90/110/12
f 121/130/7 267/111/7 268/113/7
f 105/132/1 116/140/1 112/133/1
f 122/134/2 117/96/2 266/98/2
f 263/136/2 122/134/2 245/135/2
f 158/138/7 121/130/7 262/131/7
f 116/140/1 255/99/1 118/101/1
f 147/141/2 160/147/2 171/142/2
f 136/100/1 256/190/1 280/144/1
f 274/146/27 287/152/27 160/147/27
f 146/148/28 137/171/28 279/149/28
f 273/151/29 164/194/29 287/152/29
f 146/148/30 278/150/30 283/153/30
f 288/155/7 282/163/7 290/156/7
f 232/69/7 161/195/7 284/158/7
f 284/158/7 161/195/7 155/159/7
f 281/162/7 165/164/7 277/160/7
f 282/163/7 288/155/7 165/164/7
f 139/165/31 157/177/31 159/166/31
f 151/168/32 145/196/32 162/169/32
f 144/167/38 159/166/38 279/149/38
f 143/85/12 153/189/12 285/172/12
f 141/154/11 283/153/11 154/87/11
f 291/157/7 290/156/7 175/174/7
f 166/176/1 170/180/1 157/177/1
f 289/143/2 171/142/2 176/178/2
f 271/179/2 176/178/2 263/136/2
f 286/175/7 175/174/7 158/138/7
f 172/145/1 280/144/1 170/180/1
usemtl Material.002
f 88/197/7 22/198/7 113/199/7
f 188/200/7 9/201/7 98/202/7
f 4/203/7 23/204/7 22/198/7
f 193/205/7 9/201/7 190/206/7
f 98/202/7 4/203/7 88/197/7
f 196/207/7 4/203/7 11/208/7
f 9/201/7 11/208/7 4/203/7
f 37/209/7 35/210/7 23/204/7
f 113/199/7 34/211/7 36/212/7
f 123/213/7 44/214/7 134/215/7
f 27/216/7 192/217/7 44/214/7
f 67/218/7 138/219/7 167/220/7
f 52/221/7 217/222/7 150/223/7
f 68/224/7 46/225/7 67/218/7
f 221/226/7 219/227/7 52/221/7
f 46/225/7 150/223/7 138/219/7
f 224/228/7 54/229/7 46/225/7
f 54/229/7 52/221/7 46/225/7
f 82/230/7 73/231/7 68/224/7
f 81/232/7 79/233/7 167/220/7
f 44/214/7 177/234/7 134/215/7
f 192/217/7 72/235/7 44/214/7
f 114/236/7 88/197/7 113/199/7
f 97/237/7 188/200/7 98/202/7
f 115/238/7 91/239/7 114/236/7
f 247/240/7 244/241/7 97/237/7
f 91/239/7 98/202/7 88/197/7
f 250/242/7 100/243/7 91/239/7
f 100/243/7 97/237/7 91/239/7
f 130/244/7 120/245/7 115/238/7
f 129/246/7 127/247/7 113/199/7
f 140/248/7 123/213/7 134/215/7
f 246/249/7 119/250/7 140/248/7
f 138/219/7 168/251/7 167/220/7
f 217/222/7 149/252/7 150/223/7
f 142/253/7 169/254/7 168/251/7
f 272/255/7 149/252/7 270/256/7
f 150/223/7 142/253/7 138/219/7
f 275/257/7 142/253/7 152/258/7
f 149/252/7 152/258/7 142/253/7
f 184/259/7 182/260/7 169/254/7
f 167/220/7 181/261/7 183/262/7
f 177/234/7 140/248/7 134/215/7
f 173/263/7 246/249/7 140/248/7
f 88/197/7 4/203/7 22/198/7
f 188/200/7 190/206/7 9/201/7
f 4/203/7 196/207/7 23/204/7
f 98/202/7 9/201/7 4/203/7
f 9/201/7 193/205/7 11/208/7
f 28/264/7 27/216/7 39/265/7
f 27/216/7 40/266/7 39/265/7
f 33/267/7 22/198/7 32/268/7
f 22/198/7 23/204/7 32/268/7
f 28/264/7 39/265/7 37/209/7
f 35/210/7 32/268/7 23/204/7
f 28/264/7 37/209/7 23/204/7
f 27/216/7 123/213/7 36/212/7
f 123/213/7 113/199/7 36/212/7
f 113/199/7 22/198/7 34/211/7
f 22/198/7 33/267/7 31/269/7
f 22/198/7 31/269/7 34/211/7
f 38/270/7 40/266/7 27/216/7
f 36/212/7 38/270/7 27/216/7
f 123/213/7 27/216/7 44/214/7
f 27/216/7 28/264/7 192/217/7
f 67/218/7 46/225/7 138/219/7
f 52/221/7 219/227/7 217/222/7
f 68/224/7 224/228/7 46/225/7
f 46/225/7 52/221/7 150/223/7
f 54/229/7 221/226/7 52/221/7
f 85/271/7 72/235/7 84/272/7
f 72/235/7 73/231/7 84/272/7
f 68/224/7 67/218/7 77/273/7
f 67/218/7 78/274/7 77/273/7
f 82/230/7 84/272/7 73/231/7
f 68/224/7 77/273/7 80/275/7
f 80/275/7 82/230/7 68/224/7
f 167/220/7 177/234/7 81/232/7
f 177/234/7 72/235/7 81/232/7
f 72/235/7 85/271/7 83/276/7
f 72/235/7 83/276/7 81/232/7
f 78/274/7 67/218/7 76/277/7
f 67/218/7 167/220/7 79/233/7
f 76/277/7 67/218/7 79/233/7
f 44/214/7 72/235/7 177/234/7
f 192/217/7 73/231/7 72/235/7
f 114/236/7 91/239/7 88/197/7
f 97/237/7 244/241/7 188/200/7
f 115/238/7 250/242/7 91/239/7
f 91/239/7 97/237/7 98/202/7
f 100/243/7 247/240/7 97/237/7
f 133/278/7 119/250/7 132/279/7
f 119/250/7 120/245/7 132/279/7
f 115/238/7 114/236/7 125/280/7
f 114/236/7 126/281/7 125/280/7
f 130/244/7 132/279/7 120/245/7
f 115/238/7 125/280/7 128/282/7
f 128/282/7 130/244/7 115/238/7
f 113/199/7 123/213/7 129/246/7
f 123/213/7 119/250/7 129/246/7
f 119/250/7 133/278/7 131/283/7
f 119/250/7 131/283/7 129/246/7
f 126/281/7 114/236/7 124/284/7
f 114/236/7 113/199/7 127/247/7
f 124/284/7 114/236/7 127/247/7
f 140/248/7 119/250/7 123/213/7
f 246/249/7 120/245/7 119/250/7
f 138/219/7 142/253/7 168/251/7
f 217/222/7 270/256/7 149/252/7
f 142/253/7 275/257/7 169/254/7
f 150/223/7 149/252/7 142/253/7
f 149/252/7 272/255/7 152/258/7
f 174/285/7 173/263/7 186/286/7
f 173/263/7 187/287/7 186/286/7
f 180/288/7 168/251/7 179/289/7
f 168/251/7 169/254/7 179/289/7
f 174/285/7 186/286/7 184/259/7
f 182/260/7 179/289/7 169/254/7
f 174/285/7 184/259/7 169/254/7
f 173/263/7 177/234/7 183/262/7
f 177/234/7 167/220/7 183/262/7
f 167/220/7 168/251/7 181/261/7
f 168/251/7 180/288/7 178/290/7
f 168/251/7 178/290/7 181/261/7
f 185/291/7 187/287/7 173/263/7
f 183/262/7 185/291/7 173/263/7
f 177/234/7 173/263/7 140/248/7
f 173/263/7 174/285/7 246/249/7
